<?xml version="1.0" encoding="UTF-8" standalone="no"?><!DOCTYPE svg PUBLIC "-//W3C//DTD SVG 1.1//EN" "http://www.w3.org/Graphics/SVG/1.1/DTD/svg11.dtd"><svg width="100%" height="100%" viewBox="0 0 863 186" version="1.1" xmlns="http://www.w3.org/2000/svg" xmlns:xlink="http://www.w3.org/1999/xlink" xml:space="preserve" xmlns:serif="http://www.serif.com/" style="fill-rule:evenodd;clip-rule:evenodd;stroke-linejoin:round;stroke-miterlimit:1.41421;"><g><g><path d="M264.66,51.585l-11.01,6.742c-3.623,-5.55 -9.45,-8.85 -16.605,-8.85c-11.648,0 -20.273,8.535 -20.273,21.008c0.045,12.892 8.948,21.007 20.273,21.007c7.11,0 12.893,-3.21 16.74,-8.805l10.455,7.523c-5.685,8.347 -15.367,13.575 -27.105,13.575c-19.77,0 -33.712,-13.988 -33.712,-33.3c0,-19.313 13.942,-33.3 33.712,-33.3c11.835,-0.008 22.297,5.407 27.525,14.4Z" style="fill:white;fill-rule:nonzero;"/><path d="M302.903,38.37c15.322,0 23.534,7.245 23.534,19.537c0,10.553 -7.342,17.753 -19.68,18.945l19.771,25.733l-15.503,0l-18.713,-25.553l-3.757,0l0,25.553l-12.795,0l0,-64.215l27.143,0Zm-14.356,11.79l0,15.735l14.13,0c6.976,0 10.598,-2.573 10.598,-7.98c0,-5.325 -3.81,-7.748 -10.598,-7.748l-14.13,0l0,-0.007Z" style="fill:white;fill-rule:nonzero;"/><path d="M408.982,102.585l-12.795,0l0,-48.48l-15.87,42.292l-13.53,0l-15.87,-41.925l0,48.113l-12.795,0l0,-64.215l18.758,0l16.695,43.342l16.65,-43.342l18.757,0l0,64.215Z" style="fill:white;fill-rule:nonzero;"/><path d="M470.348,50.347l-19.905,0l0,52.245l-12.795,0l0,-52.245l-19.905,0l0,-11.97l52.612,0l0,11.97l-0.007,0Z" style="fill:white;fill-rule:nonzero;"/><path d="M527.025,38.37c20.093,0 33.345,12.75 33.345,32.107c0,19.358 -13.252,32.108 -33.345,32.108l-26.467,0l0,-64.215l26.467,0Zm-13.673,11.977l0,40.275l13.53,0c13.53,0 20.093,-8.482 20.093,-20.137c0,-11.79 -6.555,-20.138 -20.092,-20.138l-13.53,0Z" style="fill:white;fill-rule:nonzero;"/><rect x="571.875" y="38.37" width="12.795" height="64.215" style="fill:white;fill-rule:nonzero;"/><path d="M654.428,47.04l-9.218,9.037c-3.622,-4.177 -8.948,-6.742 -15.503,-6.742c-11.745,0 -20.272,8.625 -20.272,21.142c0,13.118 8.947,21.33 20.048,21.33c10.455,0 16.56,-5.047 18.255,-14.175l-16.328,0l0,-10.687l29.535,0c0.135,1.237 0.18,2.43 0.18,3.622c0,19.448 -13.162,33.166 -31.372,33.166c-17.798,0 -33.578,-12.526 -33.578,-33.256c0,-19.402 14.175,-33.3 33.9,-33.3c10.185,0 18.668,3.668 24.353,9.863Z" style="fill:white;fill-rule:nonzero;"/><rect x="672.63" y="38.37" width="12.795" height="64.215" style="fill:white;fill-rule:nonzero;"/><path d="M746.79,50.347l-19.905,0l0,52.245l-12.795,0l0,-52.245l-19.905,0l0,-11.97l52.613,0l0,11.97l-0.008,0Z" style="fill:white;fill-rule:nonzero;"/><path d="M809.122,102.585l-13.672,0l-5.595,-14.955l-27.383,0l-5.595,14.955l-13.35,0l24.998,-64.215l15.592,0l25.005,64.215Zm-42.247,-26.738l18.577,0l-9.262,-24.817l-9.315,24.817Z" style="fill:white;fill-rule:nonzero;"/><path d="M862.5,102.585l-45.135,0l0,-64.215l12.795,0l0,52.245l32.34,0l0,11.97Z" style="fill:white;fill-rule:nonzero;"/></g><g><path d="M255.007,129.915l-2.459,2.407c-0.968,-1.117 -2.385,-1.8 -4.133,-1.8c-3.135,0 -5.408,2.303 -5.408,5.64c0,3.503 2.385,5.693 5.348,5.693c2.79,0 4.418,-1.343 4.867,-3.78l-4.357,0l0,-2.85l7.883,0c0.037,0.33 0.045,0.645 0.045,0.967c0,5.19 -3.51,8.85 -8.37,8.85c-4.748,0 -8.956,-3.337 -8.956,-8.872c0,-5.175 3.78,-8.888 9.045,-8.888c2.708,0 4.973,0.983 6.495,2.633Z" style="fill:white;fill-rule:nonzero;"/><path d="M272.34,144.735l-12.472,0l0,-17.13l3.412,0l0,13.942l9.052,0l0,3.188l0.008,0Z" style="fill:white;fill-rule:nonzero;"/><path d="M291.173,136.17c0,5.115 -3.736,8.887 -9.008,8.887c-5.272,0 -8.993,-3.772 -8.993,-8.887c0,-5.115 3.721,-8.888 8.993,-8.888c5.272,0 9.007,3.773 9.007,8.888Zm-14.437,0c0,3.33 2.288,5.602 5.438,5.602c3.157,0 5.437,-2.272 5.437,-5.602c0,-3.33 -2.272,-5.603 -5.438,-5.603c-3.149,0 -5.437,2.273 -5.437,5.603Z" style="fill:white;fill-rule:nonzero;"/><path d="M301.252,127.605c3.991,0 6.495,1.485 6.495,4.747c0,1.725 -1.05,3.105 -2.482,3.638c1.567,0.525 2.85,1.995 2.85,3.84c0,3.292 -2.34,4.905 -6.45,4.905l-7.418,0l0,-17.13l7.005,0Zm-3.584,3.007l0,4.005l3.502,0c1.702,0 3.022,-0.352 3.022,-2.017c0,-1.613 -1.342,-1.98 -3.037,-1.98l-3.488,0l0,-0.008Zm0,7.005l0,4.11l3.833,0.015c1.882,0 3.075,-0.442 3.075,-2.077c0,-1.605 -1.185,-2.048 -3.075,-2.048l-3.833,0Z" style="fill:white;fill-rule:nonzero;"/><path d="M326.715,144.735l-3.645,0l-1.493,-3.99l-7.305,0l-1.492,3.99l-3.563,0l6.668,-17.138l4.162,0l6.668,17.138Zm-11.273,-7.133l4.958,0l-2.475,-6.622l-2.483,6.622Z" style="fill:white;fill-rule:nonzero;"/><path d="M341.393,144.735l-12.473,0l0,-17.13l3.412,0l0,13.942l9.053,0l0,3.188l0.008,0Z" style="fill:white;fill-rule:nonzero;"/><path d="M362.152,144.735l-12.802,0l0,-17.13l12.705,0l0,3.135l-9.293,0l0,3.795l8.858,0l0,3.135l-8.858,0l0,3.937l9.39,0l0,3.128Z" style="fill:white;fill-rule:nonzero;"/><path d="M380.977,144.735l-3.202,0l-8.692,-11.445l-0.015,11.445l-3.413,0l0,-17.13l3.195,0l8.7,11.445l0,-11.445l3.427,0l0,17.13Z" style="fill:white;fill-rule:nonzero;"/><path d="M400.688,144.735l-3.645,0l-1.493,-3.99l-7.305,0l-1.492,3.99l-3.563,0l6.668,-17.138l4.162,0l6.668,17.138Zm-11.273,-7.133l4.957,0l-2.474,-6.622l-2.483,6.622Z" style="fill:white;fill-rule:nonzero;"/><path d="M409.898,127.605c3.989,0 6.495,1.485 6.495,4.747c0,1.725 -1.051,3.105 -2.483,3.638c1.567,0.525 2.85,1.995 2.85,3.84c0,3.292 -2.34,4.905 -6.45,4.905l-7.418,0l0,-17.13l7.005,0Zm-3.585,3.007l0,4.005l3.503,0c1.702,0 3.023,-0.352 3.023,-2.017c0,-1.613 -1.343,-1.98 -3.038,-1.98l-3.488,0l0,-0.008Zm0,7.005l0,4.11l3.833,0.015c1.882,0 3.075,-0.442 3.075,-2.077c0,-1.605 -1.185,-2.048 -3.075,-2.048l-3.833,0Z" style="fill:white;fill-rule:nonzero;"/><path d="M432.308,144.735l-12.473,0l0,-17.13l3.412,0l0,13.942l9.053,0l0,3.188l0.008,0Z" style="fill:white;fill-rule:nonzero;"/><path d="M447.45,144.735l-12.802,0l0,-17.13l12.704,0l0,3.135l-9.292,0l0,3.795l8.857,0l0,3.135l-8.857,0l0,3.937l9.382,0l0,3.128l0.008,0Z" style="fill:white;fill-rule:nonzero;"/><path d="M469.86,144.735l-3.413,0l0,-12.93l-4.237,11.28l-3.608,0l-4.237,-11.183l0,12.84l-3.412,0l0,-17.137l5.002,0l4.455,11.565l4.44,-11.565l5.01,0l0,17.13Z" style="fill:white;fill-rule:nonzero;"/><path d="M486.563,144.735l-12.803,0l0,-17.13l12.705,0l0,3.135l-9.292,0l0,3.795l8.857,0l0,3.135l-8.857,0l0,3.937l9.389,0l0,3.128Z" style="fill:white;fill-rule:nonzero;"/><path d="M505.387,144.735l-3.202,0l-8.692,-11.445l-0.016,11.445l-3.412,0l0,-17.13l3.195,0l8.7,11.445l0,-11.445l3.427,0l0,17.13Z" style="fill:white;fill-rule:nonzero;"/><path d="M521.768,130.8l-5.31,0l0,13.935l-3.413,0l0,-13.935l-5.31,0l0,-3.195l14.04,0l0,3.195l-0.008,0Z" style="fill:white;fill-rule:nonzero;"/><rect x="530.618" y="127.605" width="3.195" height="20.377" style="fill:white;fill-rule:nonzero;"/><path d="M556.178,131.925c-1.343,-0.833 -2.986,-1.455 -4.861,-1.455c-1.919,0 -3.277,0.757 -3.277,2.055c0,1.26 1.478,1.642 3.54,1.98l0.968,0.157c3.06,0.503 5.46,1.815 5.46,4.8c0,3.78 -3.33,5.58 -7.013,5.58c-2.595,0 -5.385,-0.757 -7.222,-2.235l1.777,-2.752c1.237,0.99 3.255,1.845 5.46,1.845c1.897,0 3.367,-0.75 3.367,-2.07c0,-1.185 -1.245,-1.627 -3.637,-2.01l-1.088,-0.173c-3.022,-0.48 -5.227,-1.814 -5.227,-4.905c0,-3.577 3.18,-5.437 6.832,-5.437c2.4,0 4.395,0.54 6.548,1.822l-1.628,2.798Z" style="fill:white;fill-rule:nonzero;"/><path d="M580.02,144.735l-3.413,0l0,-12.93l-4.237,11.28l-3.608,0l-4.237,-11.183l0,12.84l-3.413,0l0,-17.137l5.003,0l4.455,11.565l4.44,-11.565l5.01,0l0,17.13Z" style="fill:white;fill-rule:nonzero;"/><path d="M599.73,144.735l-3.645,0l-1.492,-3.99l-7.305,0l-1.493,3.99l-3.563,0l6.668,-17.138l4.163,0l6.667,17.138Zm-11.273,-7.133l4.958,0l-2.475,-6.622l-2.483,6.622Z" style="fill:white;fill-rule:nonzero;"/><path d="M609.18,127.605c4.087,0 6.277,1.935 6.277,5.212c0,2.813 -1.957,4.733 -5.25,5.055l5.273,6.863l-4.14,0l-4.995,-6.818l-1.005,0l0,6.818l-3.413,0l0,-17.13l7.253,0Zm-3.833,3.142l0,4.2l3.773,0c1.86,0 2.827,-0.682 2.827,-2.13c0,-1.417 -1.019,-2.07 -2.827,-2.07l-3.773,0Z" style="fill:white;fill-rule:nonzero;"/><path d="M631.027,130.8l-5.31,0l0,13.935l-3.412,0l0,-13.935l-5.31,0l0,-3.195l14.04,0l0,3.195l-0.008,0Z" style="fill:white;fill-rule:nonzero;"/><path d="M651.9,144.735l-12.802,0l0,-17.13l12.705,0l0,3.135l-9.293,0l0,3.795l8.858,0l0,3.135l-8.858,0l0,3.937l9.382,0l0,3.128l0.008,0Z" style="fill:white;fill-rule:nonzero;"/><path d="M670.725,144.735l-3.202,0l-8.693,-11.445l-0.015,11.445l-3.412,0l0,-17.13l3.195,0l8.7,11.445l0,-11.445l3.427,0l0,17.13Z" style="fill:white;fill-rule:nonzero;"/><path d="M689.348,129.915l-2.461,2.407c-0.967,-1.117 -2.385,-1.8 -4.132,-1.8c-3.135,0 -5.408,2.303 -5.408,5.64c0,3.503 2.385,5.693 5.348,5.693c2.79,0 4.418,-1.343 4.868,-3.78l-4.358,0l0,-2.85l7.882,0c0.038,0.33 0.046,0.645 0.046,0.967c0,5.19 -3.51,8.85 -8.371,8.85c-4.747,0 -8.955,-3.337 -8.955,-8.872c0,-5.175 3.78,-8.888 9.045,-8.888c2.715,0 4.98,0.983 6.495,2.633Z" style="fill:white;fill-rule:nonzero;"/><path d="M709.238,144.735l-3.645,0l-1.493,-3.99l-7.305,0l-1.492,3.99l-3.563,0l6.668,-17.138l4.162,0l6.668,17.138Zm-11.273,-7.133l4.957,0l-2.475,-6.622l-2.482,6.622Z" style="fill:white;fill-rule:nonzero;"/><path d="M725.385,129.915l-2.46,2.407c-0.967,-1.117 -2.385,-1.8 -4.132,-1.8c-3.135,0 -5.408,2.303 -5.408,5.64c0,3.503 2.385,5.693 5.348,5.693c2.79,0 4.417,-1.343 4.867,-3.78l-4.357,0l0,-2.85l7.882,0c0.038,0.33 0.045,0.645 0.045,0.967c0,5.19 -3.51,8.85 -8.37,8.85c-4.747,0 -8.955,-3.337 -8.955,-8.872c0,-5.175 3.78,-8.888 9.045,-8.888c2.715,0 4.98,0.983 6.495,2.633Z" style="fill:white;fill-rule:nonzero;"/><path d="M743.048,144.735l-12.803,0l0,-17.13l12.705,0l0,3.135l-9.293,0l0,3.795l8.858,0l0,3.135l-8.857,0l0,3.937l9.382,0l0,3.128l0.008,0Z" style="fill:white;fill-rule:nonzero;"/><path d="M765.458,144.735l-3.413,0l0,-12.93l-4.238,11.28l-3.607,0l-4.238,-11.183l0,12.84l-3.412,0l0,-17.137l5.01,0l4.455,11.565l4.44,-11.565l5.003,0l0,17.13Z" style="fill:white;fill-rule:nonzero;"/><path d="M782.16,144.735l-12.802,0l0,-17.13l12.705,0l0,3.135l-9.293,0l0,3.795l8.858,0l0,3.135l-8.858,0l0,3.937l9.39,0l0,3.128Z" style="fill:white;fill-rule:nonzero;"/><path d="M800.985,144.735l-3.202,0l-8.693,-11.445l-0.015,11.445l-3.412,0l0,-17.13l3.195,0l8.7,11.445l0,-11.445l3.427,0l0,17.13Z" style="fill:white;fill-rule:nonzero;"/><path d="M817.365,130.8l-5.31,0l0,13.935l-3.413,0l0,-13.935l-5.31,0l0,-3.195l14.041,0l0,3.195l-0.008,0Z" style="fill:white;fill-rule:nonzero;"/></g></g><g><path d="M164.768,102.09l0,28.537c0,5.888 -3.143,11.325 -8.235,14.273l-65.91,38.055c-5.1,2.94 -11.378,2.94 -16.478,0l-65.91,-38.055c-5.1,-2.94 -8.235,-8.385 -8.235,-14.273l0,-47.565l82.388,-47.565l65.91,38.055l-32.956,19.028l-32.955,-19.028l-65.91,38.055l65.91,38.055l82.381,-47.572Z" style="fill:url(#_Linear1);fill-rule:nonzero;"/><path d="M164.768,54.525l0,47.565l-82.388,47.565l-65.91,-38.055l32.955,-19.028l32.955,19.028l65.91,-38.055l-65.91,-38.055l-82.38,47.58l0,-28.538c0,-5.887 3.143,-11.325 8.235,-14.272l65.91,-38.055c5.1,-2.94 11.378,-2.94 16.478,0l65.91,38.055c5.092,2.94 8.235,8.377 8.235,14.265Z" style="fill:url(#_Linear2);fill-rule:nonzero;"/></g><defs><linearGradient id="_Linear1" x1="0" y1="0" x2="1" y2="0" gradientUnits="userSpaceOnUse" gradientTransform="matrix(137.846,-79.5856,79.5856,137.846,10.4457,153.14)"><stop offset="0" style="stop-color:#2de1fc;stop-opacity:1"/><stop offset="1" style="stop-color:#0068f2;stop-opacity:1"/></linearGradient><linearGradient id="_Linear2" x1="0" y1="0" x2="1" y2="0" gradientUnits="userSpaceOnUse" gradientTransform="matrix(-137.846,79.5856,-79.5856,-137.846,154.323,32.0199)"><stop offset="0" style="stop-color:#2de1fc;stop-opacity:1"/><stop offset="1" style="stop-color:#0068f2;stop-opacity:1"/></linearGradient></defs></svg>